# xmcd
#
# Track frame offsets:
#	150
#	15305
#	27998
#	40764
#	52979
#
# Disc length: 859 seconds
#
# Revision: 0
# Processed by: cddbd v1.5.2PL0 Copyright (c) Steve Scherf et al.
# Submitted via: EasyCDDAExtractor 16.0.6.1
#
DISCID=2e035905
DTITLE=Κόκοτας Σταμάτης - Χρυσό μικρόφωνο 003-Κόκοτας Σ.
DYEAR=2010
DGENRE=Ποικίλη
TTITLE0=Μιάζωή [Ανδ. Καρράς-Αννίτα Πάνια]
TTITLE1=Φεγγάρια πανσέληνα [Ανδ. Καρράς-Αννίτα Πάνια]
TTITLE2=Μάτια αινιγματικά [Ανδρέας Καρράς]
TTITLE3=Ορκίστηκα [Ανδ. Καρράς-Αννίτα Πάνια]
TTITLE4=Φεγγαροζεϊμπέκικο [Ανδρέας Καρράς]
EXTD=
EXTT0=
EXTT1=
EXTT2=
EXTT3=
EXTT4=
PLAYORDER=
